<svg xmlns="http://www.w3.org/2000/svg" style="display:none">
  <symbol id="home" viewBox="0 0 24 24" fill="none" stroke="currentColor" stroke-width="1.8" stroke-linecap="round" stroke-linejoin="round">
    <path d="M3 11l9-7 9 7"/>
    <path d="M9 22V12h6v10"/>
  </symbol>
  <symbol id="terminal" viewBox="0 0 24 24" fill="none" stroke="currentColor" stroke-width="1.8" stroke-linecap="round" stroke-linejoin="round">
    <path d="M4 5h16v14H4z"/>
    <path d="M7 9l3 3-3 3"/>
    <path d="M13 15h4"/>
  </symbol>
  <symbol id="code" viewBox="0 0 24 24" fill="none" stroke="currentColor" stroke-width="1.8" stroke-linecap="round" stroke-linejoin="round">
    <path d="M8 9l-4 3 4 3"/>
    <path d="M16 9l4 3-4 3"/>
    <path d="M12 5l-2 14"/>
  </symbol>
  <symbol id="bot" viewBox="0 0 24 24" fill="none" stroke="currentColor" stroke-width="1.8" stroke-linecap="round" stroke-linejoin="round">
    <rect x="5" y="7" width="14" height="10" rx="3"/>
    <path d="M12 3v4"/>
    <circle cx="9" cy="12" r="1"/>
    <circle cx="15" cy="12" r="1"/>
  </symbol>
  <symbol id="device" viewBox="0 0 24 24" fill="none" stroke="currentColor" stroke-width="1.8" stroke-linecap="round" stroke-linejoin="round">
    <rect x="3" y="4" width="18" height="14" rx="2"/>
    <path d="M8 20h8"/>
  </symbol>
  <symbol id="cloud" viewBox="0 0 24 24" fill="none" stroke="currentColor" stroke-width="1.8" stroke-linecap="round" stroke-linejoin="round">
    <path d="M17.5 17a4.5 4.5 0 0 0 0-9 5.5 5.5 0 0 0-10.7 1.5A4 4 0 0 0 7 17z"/>
  </symbol>
  <symbol id="mail" viewBox="0 0 24 24" fill="none" stroke="currentColor" stroke-width="1.8" stroke-linecap="round" stroke-linejoin="round">
    <rect x="3" y="5" width="18" height="14" rx="2"/>
    <path d="M3 7l9 6 9-6"/>
  </symbol>
  <symbol id="link" viewBox="0 0 24 24" fill="none" stroke="currentColor" stroke-width="1.8" stroke-linecap="round" stroke-linejoin="round">
    <path d="M10 13a5 5 0 0 0 7.07 0l1.41-1.41a5 5 0 0 0-7.07-7.07L10 5"/>
    <path d="M14 11a5 5 0 0 0-7.07 0L5.5 12.43a5 5 0 1 0 7.07 7.07L14 19"/>
  </symbol>
</svg>
